<?xml version="1.0" encoding="UTF-8" standalone="no"?>
<svg
   xmlns:dc="http://purl.org/dc/elements/1.1/"
   xmlns:cc="http://creativecommons.org/ns#"
   xmlns:rdf="http://www.w3.org/1999/02/22-rdf-syntax-ns#"
   xmlns:svg="http://www.w3.org/2000/svg"
   xmlns="http://www.w3.org/2000/svg"
   xmlns:sodipodi="http://sodipodi.sourceforge.net/DTD/sodipodi-0.dtd"
   xmlns:inkscape="http://www.inkscape.org/namespaces/inkscape"
   width="1500"
   height="1500"
   viewBox="0 0 396.87499 396.87501"
   version="1.1"
   id="svg8"
   sodipodi:docname="ytlogo1.svg"
   inkscape:version="1.0.1 (3bc2e813f5, 2020-09-07)"
   inkscape:export-filename="C:\Users\Evan\Desktop\Inkscape\ytlogonobg.png"
   inkscape:export-xdpi="96"
   inkscape:export-ydpi="96">
  <defs
     id="defs2" />
  <sodipodi:namedview
     id="base"
     pagecolor="#eeeeee"
     bordercolor="#666666"
     borderopacity="1.0"
     inkscape:pageopacity="0"
     inkscape:pageshadow="2"
     inkscape:zoom="0.35355339"
     inkscape:cx="-436.6505"
     inkscape:cy="617.33251"
     inkscape:document-units="mm"
     inkscape:current-layer="layer2"
     inkscape:document-rotation="0"
     showgrid="false"
     inkscape:showpageshadow="false"
     units="px"
     inkscape:window-width="2879"
     inkscape:window-height="1502"
     inkscape:window-x="456"
     inkscape:window-y="456"
     inkscape:window-maximized="0" />
  <metadata
     id="metadata5">
    <rdf:RDF>
      <cc:Work
         rdf:about="">
        <dc:format>image/svg+xml</dc:format>
        <dc:type
           rdf:resource="http://purl.org/dc/dcmitype/StillImage" />
        <dc:title></dc:title>
      </cc:Work>
    </rdf:RDF>
  </metadata>
  <g
     inkscape:groupmode="layer"
     id="layer3"
     inkscape:label="Layer 3"
     style="display:none">
    <rect
       style="opacity:0.5;fill:#ffffff;fill-opacity:1;fill-rule:nonzero;stroke:none;stroke-width:93.2042;stroke-miterlimit:4;stroke-dasharray:none;stroke-opacity:1"
       id="rect4684"
       width="396.875"
       height="396.875"
       x="0"
       y="0" />
  </g>
  <g
     inkscape:groupmode="layer"
     id="layer2"
     inkscape:label="Layer 2">
    <circle
       style="fill:#ffffff;fill-opacity:0;stroke:#ffffff;stroke-width:14.7802;stroke-miterlimit:4;stroke-dasharray:none;stroke-opacity:1"
       id="path836"
       cx="200.86964"
       cy="197.50204"
       r="181.28839" />
    <path
       style="fill:none;stroke:#000000;stroke-width:0;stroke-linecap:butt;stroke-linejoin:miter;stroke-opacity:1;stroke-miterlimit:4;stroke-dasharray:none"
       d="m 92.604166,114.10156 c 2.89388,71.52018 31.419274,16.53646 31.419274,16.53646"
       id="path838" />
    <ellipse
       style="fill:#ffffff;fill-opacity:1;stroke:none;stroke-width:1.48412;stroke-miterlimit:4;stroke-dasharray:none;stroke-opacity:1"
       id="path844"
       cx="62.209518"
       cy="214.67825"
       rx="26.689548"
       ry="26.382771" />
    <ellipse
       style="fill:#ffffff;fill-opacity:1;stroke:none;stroke-width:1.52622;stroke-miterlimit:4;stroke-dasharray:none;stroke-opacity:1"
       id="path844-2"
       cx="330.39444"
       cy="194.84323"
       rx="27.446606"
       ry="27.131124" />
    <path
       style="fill:none;stroke:#ffffff;stroke-width:25;stroke-linecap:butt;stroke-linejoin:miter;stroke-miterlimit:4;stroke-dasharray:none;stroke-opacity:1"
       d="m 135.18555,179.42057 c 0,0 -0.82683,46.71549 56.22395,54.98372"
       id="path865"
       sodipodi:nodetypes="cc" />
    <path
       style="fill:none;stroke:#ffffff;stroke-width:25;stroke-linecap:butt;stroke-linejoin:miter;stroke-miterlimit:4;stroke-dasharray:none;stroke-opacity:1"
       d="m 247.63345,179.42057 c 0,0 0.82683,46.71549 -56.22395,54.98372"
       id="path865-1" />
    <path
       style="fill:none;stroke:#ffffff;stroke-width:25;stroke-linecap:butt;stroke-linejoin:miter;stroke-miterlimit:4;stroke-dasharray:none;stroke-opacity:1"
       d="m 185.7732,233.56851 c 0,0 4.96954,1.7905 11.32763,-0.10962"
       id="path891"
       sodipodi:nodetypes="cc" />
    <path
       style="fill:none;stroke:#ffffff;stroke-width:4.99999;stroke-linecap:butt;stroke-linejoin:miter;stroke-miterlimit:4;stroke-dasharray:none;stroke-opacity:1"
       d="m 31.469139,93.037868 c 0,0 -9.78959,59.531252 -20.6375,67.468752 -10.84791969,7.9375 362.743741,7.40833 375.443741,-17.4625 0,0 -34.13125,-37.57084 -30.95623,-65.087501 3.175,-27.51667 -323.850011,15.081249 -323.850011,15.081249 z"
       id="path910-0" />
    <path
       style="opacity:1;fill:#ffffff;fill-opacity:1;fill-rule:nonzero;stroke:none;stroke-width:35.3552;stroke-miterlimit:4;stroke-dasharray:none;stroke-opacity:1"
       d="m 43.220977,161.59068 c -0.282972,-0.0148 -1.672106,-0.0715 -3.086963,-0.12588 -10.6758,-0.41059 -18.089821,-0.91294 -24.321529,-1.64795 -0.774328,-0.0913 -0.790822,-0.11725 -0.411385,-0.64629 1.014056,-1.41387 2.627159,-4.48783 3.817059,-7.27385 4.717897,-11.04645 9.731682,-30.66519 14.237354,-55.710186 0.08641,-0.480341 0.203724,-0.89 0.260689,-0.910355 0.127545,-0.04557 14.023424,-1.789573 20.402689,-2.560632 2.57247,-0.310936 4.816814,-0.589132 4.987431,-0.618212 l 0.310216,-0.05288 -0.05454,0.636825 c -0.03,0.350253 -0.160293,2.02596 -0.289547,3.723789 -0.568711,7.470331 -1.317173,14.904271 -2.199148,21.842601 -2.806888,22.08126 -6.623277,36.79411 -11.124612,42.88735 l -0.382101,0.51722 -0.815562,-0.0173 c -0.448559,-0.01 -1.047083,-0.0294 -1.330055,-0.0443 z"
       id="path4609" />
    <path
       style="opacity:1;fill:#ffffff;fill-opacity:1;fill-rule:nonzero;stroke:none;stroke-width:25;stroke-miterlimit:4;stroke-dasharray:none;stroke-opacity:1"
       d="m 75.158508,162.33796 c -7.115969,-0.10099 -17.315463,-0.30774 -22.522656,-0.45654 -5.675424,-0.16218 -7.561093,-0.22977 -7.408334,-0.26555 0.440786,-0.10323 2.186779,-3.03766 3.207811,-5.39126 4.685467,-10.80054 8.381677,-31.65597 10.614538,-59.89124 0.182523,-2.308048 0.354407,-4.216011 0.381969,-4.239916 0.05252,-0.04555 4.658217,-0.60157 17.248026,-2.082244 12.398856,-1.458217 13.092922,-1.535896 13.16302,-1.473229 0.09407,0.0841 0.07688,16.114219 -0.02172,20.260069 -0.241313,10.1462 -0.589174,17.42491 -1.171228,24.50703 -1.189263,14.47032 -3.186671,24.1539 -5.877044,28.49232 l -0.379423,0.61185 -1.864614,-0.0108 c -1.025539,-0.006 -3.442192,-0.0332 -5.370343,-0.0605 z"
       id="path4613" />
    <path
       style="opacity:1;fill:#ffffff;fill-opacity:1;fill-rule:nonzero;stroke:none;stroke-width:35.3552;stroke-miterlimit:4;stroke-dasharray:none;stroke-opacity:1"
       d="m 86.088617,162.44593 c -2.932615,-0.027 -4.966742,-0.0591 -4.520287,-0.0713 l 0.811741,-0.0222 0.323864,-0.53788 c 3.757853,-6.24113 6.04253,-21.69097 6.892316,-46.60846 0.244528,-7.17011 0.377701,-24.318152 0.202412,-26.063902 l -0.06694,-0.666615 0.563827,-0.05514 c 0.310103,-0.03033 3.910373,-0.435512 8.000598,-0.900406 15.097102,-1.715937 30.089632,-3.339931 30.162362,-3.267199 0.0535,0.05351 0.27273,5.26932 0.44583,10.60737 0.1579,4.86963 0.15862,22.873362 0.001,27.081082 -0.39136,10.45274 -0.98434,17.79099 -1.94644,24.08767 -1.14186,7.47323 -2.68754,12.67371 -4.67788,15.73883 l -0.50112,0.77174 -15.17967,-0.0222 c -8.348809,-0.0122 -17.579071,-0.0443 -20.511687,-0.0713 z"
       id="path4621" />
    <path
       style="opacity:1;fill:#ffffff;fill-opacity:1;fill-rule:nonzero;stroke:none;stroke-width:49.9999;stroke-miterlimit:4;stroke-dasharray:none;stroke-opacity:1"
       d="m 108.38222,162.47402 13.39658,-0.0343 0.48171,-0.75303 c 2.83639,-4.43399 4.82359,-13.49162 5.85702,-26.69623 0.6464,-8.25936 0.7056,-10.13815 0.76496,-24.27552 0.0451,-10.735072 0.0132,-14.772499 -0.15318,-19.380726 -0.11557,-3.201458 -0.2446,-6.101154 -0.28673,-6.443771 -0.0914,-0.743453 -0.28705,-0.669025 2.5264,-0.961297 14.74947,-1.532232 24.46809,-2.51859 36.65082,-3.719754 l 0.79978,-0.07886 0.295,5.734132 c 1.6225,31.538006 2.03478,55.911976 1.14681,67.799706 -0.29744,3.98196 -0.88359,7.94362 -1.22224,8.2609 -0.252,0.23609 -43.34619,0.66174 -62.07799,0.61316 l -11.575516,-0.03 z"
       id="path4629" />
    <path
       style="opacity:1;fill:#ffffff;fill-opacity:1;fill-rule:nonzero;stroke:none;stroke-width:70.7107;stroke-miterlimit:4;stroke-dasharray:none;stroke-opacity:1"
       d="m 168.95271,160.29783 c 1.73596,-8.72594 1.69164,-31.83321 -0.13442,-70.085558 -0.25965,-5.439381 -0.42943,-9.932461 -0.37727,-9.984624 0.29006,-0.29006 40.87454,-3.903321 41.08869,-3.658147 0.0704,0.08056 0.26898,4.145491 0.44135,9.033184 1.53834,43.618805 1.97402,58.621585 1.99586,68.728235 0.008,3.58668 -0.012,6.54674 -0.0439,6.57789 -0.11568,0.11292 -36.25628,1.02414 -40.66649,1.02534 l -2.62945,7.1e-4 z"
       id="path4633" />
    <path
       style="opacity:1;fill:#ffffff;fill-opacity:1;fill-rule:nonzero;stroke:none;stroke-width:70.7107;stroke-miterlimit:4;stroke-dasharray:none;stroke-opacity:1"
       d="m 211.9327,158.38203 c 0.0867,-3.22047 -0.25921,-19.48753 -0.72535,-34.1064 -0.59257,-18.5841 -1.29368,-38.780628 -1.49377,-43.030397 -0.10175,-2.160876 -0.18522,-4.071583 -0.1855,-4.246017 -2.6e-4,-0.245542 -0.20118,-0.330031 -0.88918,-0.374177 -1.53245,-0.09833 38.04563,-3.141921 40.87887,-3.14362 l 0.60804,-2.65e-4 v 1.369275 c 0,1.834586 0.64632,15.471761 1.22081,25.758581 1.7352,31.0707 3.78277,51.33843 5.7841,57.25391 l 0.44146,1.30484 -0.683,9.3e-4 c -0.37565,5.5e-4 -2.24052,0.0833 -4.14413,0.18392 -8.55424,0.45219 -35.911,1.49511 -39.28862,1.4978 l -1.59026,10e-4 0.0665,-2.46959 z"
       id="path4639" />
    <path
       style="opacity:1;fill:#ffffff;fill-opacity:1;fill-rule:nonzero;stroke:none;stroke-width:100;stroke-miterlimit:4;stroke-dasharray:none;stroke-opacity:1"
       d="m 256.66286,159.05344 0.69887,-0.11986 -0.49797,-1.63885 c -2.33286,-7.67795 -5.18522,-41.22207 -6.74621,-79.336545 l -0.18054,-4.40812 1.42599,-0.157991 c 4.03645,-0.447217 35.58465,-1.934453 35.83002,-1.689089 0.0709,0.07092 0.42434,2.61824 0.78539,5.660715 3.71128,31.27496 10.06173,57.03239 18.28512,74.16438 1.07561,2.24085 1.95566,4.1543 1.95566,4.25212 0,0.27988 -19.58173,1.64886 -37.70312,2.63586 -12.62118,0.68743 -14.70361,0.78324 -13.85321,0.63738 z"
       id="path4649" />
    <path
       style="opacity:1;fill:#ffffff;fill-opacity:1;fill-rule:nonzero;stroke:none;stroke-width:49.9999;stroke-miterlimit:4;stroke-dasharray:none;stroke-opacity:1"
       d="m 305.9156,156.01548 c 0.0728,-0.0253 0.59367,-0.0852 1.15755,-0.13314 0.56391,-0.048 1.02526,-0.13738 1.02526,-0.1987 0,-0.0613 -0.57264,-1.32128 -1.27254,-2.79991 -4.76491,-10.06651 -8.09752,-19.66276 -11.29363,-32.52018 -3.2112,-12.91805 -5.24841,-24.397522 -7.59958,-42.822674 -0.39179,-3.07041 -0.75104,-5.645137 -0.7983,-5.721614 -0.0473,-0.07648 -0.24614,-0.150667 -0.44193,-0.164865 -1.33739,-0.09699 6.44327,-0.230936 18.11748,-0.311912 13.35222,-0.09261 13.71433,-0.08857 13.83871,0.154387 0.0702,0.137218 0.20127,0.725736 0.29117,1.30782 0.73983,4.78986 2.28645,12.963262 3.57976,18.917708 4.21064,19.38607 9.24137,35.11998 14.74113,46.10364 2.82311,5.63806 5.59536,9.83722 8.43672,12.77913 0.63936,0.66198 1.16247,1.23408 1.16247,1.27133 0,0.0373 -0.31253,0.10158 -0.69453,0.14295 -0.38198,0.0414 -2.36141,0.28734 -4.3987,0.54661 -8.58811,1.09295 -19.29836,2.18602 -31.20469,3.1847 -3.64284,0.30555 -4.98406,0.38197 -4.64635,0.26472 z"
       id="path4653" />
    <path
       style="opacity:1;fill:#ffffff;fill-opacity:1;fill-rule:nonzero;stroke:none;stroke-width:100;stroke-miterlimit:4;stroke-dasharray:none;stroke-opacity:1"
       d="m 345.64022,150.682 c -8.89209,-9.82443 -16.51897,-29.00109 -22.83695,-57.420218 -1.32549,-5.962163 -3.1264,-15.209347 -3.73582,-19.182291 -0.2023,-1.318903 -0.48651,-2.245527 -0.75406,-2.458561 -0.46191,-0.367779 1.07493,-0.333796 10.55021,0.233299 10.66647,0.638384 18.32703,2.029836 22.02429,4.000455 0.96551,0.514609 1.57625,1.023104 1.6492,1.373116 0.0637,0.305721 0.16489,2.758514 0.22479,5.450649 0.0902,4.052409 0.23235,5.463969 0.82621,8.202084 2.30331,10.620247 7.55433,21.863957 16.36575,35.043107 2.86515,4.28539 8.08313,11.2995 11.03625,14.83513 1.01666,1.21723 1.84851,2.26558 1.84851,2.32968 0,0.0641 -0.8632,0.54208 -1.91823,1.06219 -5.00613,2.46796 -15.53385,4.99085 -29.17031,6.99046 l -5.02709,0.73715 z"
       id="path4661" />
  </g>
</svg>
